<?xml version="1.0" standalone="no"?><!DOCTYPE svg PUBLIC "-//W3C//DTD SVG 1.1//EN" "http://www.w3.org/Graphics/SVG/1.1/DTD/svg11.dtd"><svg t="1629191025072" class="icon" viewBox="0 0 1024 1024" version="1.1" xmlns="http://www.w3.org/2000/svg" p-id="3074" xmlns:xlink="http://www.w3.org/1999/xlink" width="200" height="200"><defs><style type="text/css"></style></defs><path d="M760.8 631.9L769 657c3 9.3 11.6 15.5 21.4 15.5h26.4c13.6 0 19.2 17.4 8.2 25.3l-21.4 15.5c-7.9 5.7-11.2 15.9-8.2 25.1l8.2 25.1c4.2 12.9-10.6 23.6-21.5 15.7l-21.4-15.5c-7.9-5.7-18.5-5.7-26.4 0l-21.4 15.5c-11 8-25.7-2.8-21.5-15.7l8.2-25.1c3-9.3-0.3-19.4-8.2-25.1L670 697.9c-11-8-5.3-25.3 8.2-25.3h26.4c9.7 0 18.4-6.3 21.4-15.5l8.2-25.1c4.1-13 22.4-13 26.6-0.1zM287 752.3c-13.3 0-24-10.7-24-24V513.9c0-13.2 10.7-24 24-24s24 10.7 24 24v214.4c0 13.2-10.7 24-24 24zM428.1 752.3c-13.3 0-24-10.7-24-24V513.9c0-13.2 10.7-24 24-24s24 10.7 24 24v214.4c0 13.2-10.7 24-24 24zM569.2 699.1c-13.3 0-24-10.7-24-24V513.9c0-13.2 10.7-24 24-24s24 10.7 24 24v161.2c0 13.2-10.7 24-24 24zM770.8 410.7H96.2c-10.4 0-19.6-6.7-22.8-16.5-3.2-9.9 0.2-20.7 8.6-26.8l337.3-248.6c8.5-6.2 20-6.2 28.5 0L785 367.4c8.3 6.2 11.8 17 8.6 26.8-3.2 9.8-12.4 16.5-22.8 16.5z m-601.6-48h528.6L433.5 167.9 169.2 362.7z" fill="#ffffff" p-id="3075"></path><path d="M659.2 386.7h48v148.9h-48zM149.1 386.7h48v460.2h-48z" fill="#ffffff" p-id="3076"></path><path d="M642.5 878.8H121.1c-13.3 0-24-10.7-24-24 0-13.2 10.7-24 24-24h521.3c13.3 0 24 10.7 24 24s-10.7 24-23.9 24z" fill="#ffffff" p-id="3077"></path><path d="M747.5 906.6c-112.7 0-204.4-91.7-204.4-204.4s91.7-204.4 204.4-204.4 204.4 91.7 204.4 204.4-91.7 204.4-204.4 204.4z m0-360.9c-86.3 0-156.4 70.2-156.4 156.4s70.2 156.5 156.4 156.5 156.4-70.2 156.4-156.5-70.2-156.4-156.4-156.4z" fill="#ffffff" p-id="3078"></path></svg>