<?xml version="1.0" standalone="no"?><!DOCTYPE svg PUBLIC "-//W3C//DTD SVG 1.1//EN" "http://www.w3.org/Graphics/SVG/1.1/DTD/svg11.dtd"><svg t="1629190933748" class="icon" viewBox="0 0 1024 1024" version="1.1" xmlns="http://www.w3.org/2000/svg" p-id="2216" xmlns:xlink="http://www.w3.org/1999/xlink" width="200" height="200"><defs><style type="text/css"></style></defs><path d="M506.8 480.6c-13.8 0-25-11.2-25-25l-0.2-71.2c0-13.8 11.1-25 25-25.1h0.1c13.8 0 25 11.2 25 25l0.2 71.2c-0.1 13.9-11.3 25.1-25.1 25.1z" fill="#ffffff" p-id="2217"></path><path d="M436.3 531c-8.7 0-17.2-4.6-21.8-12.7-6.8-12-2.6-27.3 9.4-34.1l67.4-38.2c12.1-6.8 27.3-2.6 34.1 9.4 6.8 12 2.6 27.3-9.4 34.1l-67.4 38.2c-3.8 2.3-8.1 3.3-12.3 3.3z" fill="#ffffff" p-id="2218"></path><path d="M436.3 531c-8.7 0-17.2-4.6-21.8-12.7-6.8-12-2.6-27.3 9.4-34.1l67.4-38.2c12.1-6.8 27.3-2.6 34.1 9.4 6.8 12 2.6 27.3-9.4 34.1l-67.4 38.2c-3.8 2.3-8.1 3.3-12.3 3.3z" fill="#ffffff" p-id="2219"></path><path d="M576.7 531.1c-4.2 0-8.5-1.1-12.4-3.3l-60.8-34.9c-12-6.9-16.1-22.1-9.3-34.1 6.9-12 22.2-16.2 34.1-9.3l60.8 34.9c12 6.9 16.1 22.1 9.3 34.1-4.6 8.1-13 12.6-21.7 12.6z" fill="#ffffff" p-id="2220"></path><path d="M878.2 954H144.4c-13.8 0-25-11.2-25-25V578.8c0-13.8 11.2-25 25-25h154.3V328.6c0-8 3.9-15.6 10.4-20.3l185.5-133.4c8.6-6.2 20.2-6.3 29-0.1l189.7 133.4c6.7 4.7 10.6 12.3 10.6 20.5v225.1h154.3c13.8 0 25 11.2 25 25V929c0.1 13.8-11.2 25-25 25z m-708.8-50h683.8V603.8H699c-13.8 0-25-11.2-25-25V341.6L509.4 225.9 348.7 341.4v237.3c0 13.8-11.2 25-25 25H169.4V904z" fill="#ffffff" p-id="2221"></path><path d="M611.4 954H411.3c-13.8 0-25-11.2-25-25V695.5c0-13.8 11.2-25 25-25h200.1c13.8 0 25 11.2 25 25V929c0 13.8-11.2 25-25 25z m-175.1-50h150.1V720.5H436.3V904zM511.3 220.2c-13.8 0-25-11.2-25-25V95.1c0-13.8 11.2-25 25-25s25 11.2 25 25v100.1c0 13.8-11.2 25-25 25z" fill="#ffffff" p-id="2222"></path><path d="M599.5 120.1h-83.4c-13.8 0-25-11.2-25-25s11.2-25 25-25h83.4c13.8 0 25 11.2 25 25s-11.1 25-25 25z" fill="#ffffff" p-id="2223"></path></svg>